<svg xmlns="http://www.w3.org/2000/svg" width="151.952" height="53.563" viewBox="0 0 151.952 53.563">
  <g id="Grupo_9089" data-name="Grupo 9089" transform="translate(-188.504 -329.903)">
    <path id="Caminho_99" data-name="Caminho 99" d="M211.312,343.509a6.708,6.708,0,0,1-6.708,6.708h-.447a2.236,2.236,0,0,0-2.236,2.236v4.472a2.236,2.236,0,0,0,2.236,2.236,28.244,28.244,0,0,1,15.614,4.657q.547.362,1.075.748a37.064,37.064,0,0,0,15.529,5.855,38.961,38.961,0,0,0,5.347.367,20.572,20.572,0,0,0,20.572-20.572,20.125,20.125,0,0,0-20.125-20.124H226.517a2.236,2.236,0,0,0-2.236,2.236v19.129c.923.545,1.819,1.131,2.693,1.746q.685.552,1.422,1.053c.421.286.856.555,1.3.814a2.232,2.232,0,0,0,.477.258,2.2,2.2,0,0,0,3.04-1.843c0-.017,0-.034,0-.051,0-.046.01-.092.01-.139V338.589h8.944A11.627,11.627,0,0,1,253.8,350.216a12.075,12.075,0,0,1-12.075,12.075,28.228,28.228,0,0,1-16.141-4.952q-.42-.292-.827-.6a35.743,35.743,0,0,0-7.744-4.139,13.351,13.351,0,0,0,2.8-8.2v-.895a13.416,13.416,0,0,0-13.417-13.417H190.74a2.236,2.236,0,0,0-2.236,2.236v35.777a2.236,2.236,0,0,0,2.236,2.236h4.472a2.236,2.236,0,0,0,2.236-2.236V338.589h8.944a4.92,4.92,0,0,1,4.92,4.92" transform="translate(0 -0.038)" fill="#29764c"/>
    <path id="Caminho_100" data-name="Caminho 100" d="M188.5,386.73a.66.66,0,0,1,.718-.727h1.642c1.436,0,2.323.644,2.323,2.108a1.811,1.811,0,0,1-1.726,1.763l1.586,1.7a.606.606,0,0,1,.186.41.715.715,0,0,1-.7.718.724.724,0,0,1-.542-.242l-2.071-2.509H189.9v2.023a.7.7,0,1,1-1.4,0Zm1.4,2.211h.961a.794.794,0,0,0,.867-.83.782.782,0,0,0-.867-.821H189.9Z" transform="translate(0 -11.215)" fill="#929288"/>
    <path id="Caminho_101" data-name="Caminho 101" d="M200,392.207c0,.346,0,.879-.645.879-.393,0-.552-.215-.646-.57a1.614,1.614,0,0,1-1.282.627,2.357,2.357,0,0,1-2.226-2.591,2.414,2.414,0,0,1,2.226-2.609,1.539,1.539,0,0,1,1.282.617.639.639,0,0,1,.646-.561c.645,0,.645.534.645.878Zm-2.385-.3c.7,0,1.039-.71,1.039-1.356s-.327-1.375-1.039-1.375c-.738,0-1.066.729-1.066,1.375s.337,1.356,1.066,1.356" transform="translate(-1.339 -11.603)" fill="#929288"/>
    <path id="Caminho_102" data-name="Caminho 102" d="M204.036,386.227a.771.771,0,0,1-.758.777.79.79,0,0,1-.758-.777.758.758,0,0,1,1.515,0m-1.431,2.03a.677.677,0,1,1,1.347,0v3.592a.677.677,0,1,1-1.347,0Z" transform="translate(-2.802 -11.113)" fill="#929288"/>
    <path id="Caminho_103" data-name="Caminho 103" d="M210.288,392.207c0,.346,0,.879-.646.879-.392,0-.551-.215-.645-.57a1.614,1.614,0,0,1-1.282.627,2.357,2.357,0,0,1-2.226-2.591,2.414,2.414,0,0,1,2.226-2.609,1.539,1.539,0,0,1,1.282.617.639.639,0,0,1,.645-.561c.646,0,.646.534.646.878Zm-2.385-.3c.7,0,1.038-.71,1.038-1.356s-.328-1.375-1.038-1.375c-.739,0-1.067.729-1.067,1.375s.337,1.356,1.067,1.356" transform="translate(-3.396 -11.603)" fill="#929288"/>
    <path id="Caminho_104" data-name="Caminho 104" d="M212.984,386.721a.692.692,0,0,1,.725-.725h1.563a3.122,3.122,0,0,1,3.314,3.445,3.044,3.044,0,0,1-3.22,3.257h-1.639a.69.69,0,0,1-.743-.706ZM214.4,391.4h.95c1.215,0,1.77-.894,1.77-2.024,0-1.2-.565-2.08-1.863-2.08H214.4Z" transform="translate(-4.894 -11.214)" fill="#929288"/>
    <path id="Caminho_105" data-name="Caminho 105" d="M221.2,388.687a.662.662,0,0,1,.692-.674c.355,0,.655.131.655.562h.018a1.063,1.063,0,0,1,.945-.562.657.657,0,0,1,.654.72c0,.44-.4.468-.8.655s-.814.365-.814.9v2.067a.677.677,0,1,1-1.347,0Z" transform="translate(-6.537 -11.617)" fill="#929288"/>
    <path id="Caminho_106" data-name="Caminho 106" d="M229.982,390.553a2.419,2.419,0,1,1-4.827,0,2.421,2.421,0,1,1,4.827,0m-3.48,0c0,.646.337,1.356,1.066,1.356s1.066-.71,1.066-1.356-.327-1.375-1.066-1.375-1.066.729-1.066,1.375" transform="translate(-7.327 -11.603)" fill="#929288"/>
    <path id="Caminho_107" data-name="Caminho 107" d="M236.945,392.638a2.306,2.306,0,0,1-2.591,2.431c-.552,0-2.123-.271-2.123-1.01a.656.656,0,0,1,.542-.589c.43,0,.907.42,1.684.42a1.037,1.037,0,0,0,1.141-1.066v-.318h-.018a1.542,1.542,0,0,1-1.356.636c-1.413,0-2.077-1.243-2.077-2.581a2.41,2.41,0,0,1,2.217-2.619,1.466,1.466,0,0,1,1.235.617.644.644,0,0,1,.674-.561.68.68,0,0,1,.674.748Zm-2.4-3.46c-.7,0-1.047.73-1.047,1.356,0,.72.346,1.375,1.047,1.375.72,0,1.057-.673,1.057-1.328s-.318-1.4-1.057-1.4" transform="translate(-8.725 -11.603)" fill="#929288"/>
    <path id="Caminho_108" data-name="Caminho 108" d="M244.146,392.207c0,.346,0,.879-.646.879-.392,0-.551-.215-.645-.57a1.614,1.614,0,0,1-1.282.627,2.357,2.357,0,0,1-2.226-2.591,2.414,2.414,0,0,1,2.226-2.609,1.539,1.539,0,0,1,1.282.617A.639.639,0,0,1,243.5,388c.646,0,.646.534.646.878Zm-2.385-.3c.7,0,1.039-.71,1.039-1.356s-.328-1.375-1.039-1.375c-.739,0-1.066.729-1.066,1.375s.337,1.356,1.066,1.356" transform="translate(-10.165 -11.603)" fill="#929288"/>
    <path id="Caminho_109" data-name="Caminho 109" d="M249.556,389.514c-.254,0-.768-.393-1.207-.393-.243,0-.458.113-.458.374,0,.626,2.339.533,2.339,2.067a1.7,1.7,0,0,1-1.918,1.581c-.758,0-1.88-.43-1.88-1.039a.635.635,0,0,1,.58-.6c.524,0,.758.458,1.394.458.411,0,.533-.131.533-.383,0-.618-2.337-.524-2.337-2.067a1.634,1.634,0,0,1,1.823-1.571c.665,0,1.684.309,1.684.973a.582.582,0,0,1-.551.6" transform="translate(-11.581 -11.603)" fill="#929288"/>
    <path id="Caminho_110" data-name="Caminho 110" d="M253.652,386.227a.771.771,0,0,1-.758.777.79.79,0,0,1-.758-.777.758.758,0,0,1,1.515,0m-1.431,2.03a.677.677,0,1,1,1.347,0v3.592a.677.677,0,1,1-1.347,0Z" transform="translate(-12.721 -11.113)" fill="#929288"/>
    <path id="Caminho_111" data-name="Caminho 111" d="M255.328,386.049a.677.677,0,1,1,1.347,0v5.762a.677.677,0,1,1-1.347,0Z" transform="translate(-13.359 -11.075)" fill="#929288"/>
    <path id="Caminho_112" data-name="Caminho 112" d="M265.307,386.9a.638.638,0,0,1-.616.681c-.378,0-.672-.276-1.224-.276-.4,0-.754.211-.754.6,0,.947,3.073.341,3.073,2.714a2.185,2.185,0,0,1-2.355,2.134c-.708,0-2.235-.166-2.235-1.03a.614.614,0,0,1,.617-.654c.432,0,.947.358,1.545.358s.938-.34.938-.79c0-1.086-3.073-.432-3.073-2.567a2.128,2.128,0,0,1,2.282-2.088c.515,0,1.8.194,1.8.92" transform="translate(-14.532 -11.211)" fill="#929288"/>
    <path id="Caminho_113" data-name="Caminho 113" d="M268.3,392.549a.729.729,0,1,1-.73.73.73.73,0,0,1,.73-.73" transform="translate(-15.806 -12.524)" fill="#929288"/>
    <path id="Caminho_114" data-name="Caminho 114" d="M272.664,386.751a1.08,1.08,0,0,1,.982-.762,1.039,1.039,0,0,1,.983.762l1.8,4.994a1.069,1.069,0,0,1,.074.34.612.612,0,0,1-.634.606.643.643,0,0,1-.67-.478l-.275-.862h-2.553l-.275.854a.637.637,0,0,1-.661.486.659.659,0,0,1-.679-.643.785.785,0,0,1,.064-.3Zm.1,3.332h1.745l-.854-2.663h-.018Z" transform="translate(-16.443 -11.213)" fill="#929288"/>
    <path id="Caminho_115" data-name="Caminho 115" d="M279.637,392.549a.729.729,0,1,1-.73.73.73.73,0,0,1,.73-.73" transform="translate(-18.073 -12.524)" fill="#929288"/>
    <path id="Caminho_116" data-name="Caminho 116" d="M376.818,379.894a1.057,1.057,0,1,1,1.071-1.056,1.064,1.064,0,0,1-1.071,1.056" transform="translate(-37.434 -9.572)" fill="#929288"/>
    <path id="Caminho_117" data-name="Caminho 117" d="M291.229,341.36a4.535,4.535,0,0,1-3.694-1.75,6.238,6.238,0,0,1-1.24-3.861c0-2.792,1.586-5.61,5.129-5.61,2.271,0,3.915,1.159,3.915,1.939a.86.86,0,0,1-.886.873,1.628,1.628,0,0,1-.907-.413,3.429,3.429,0,0,0-2.212-.77c-2.155,0-3.12,2-3.12,3.981,0,1.837.833,3.983,3.18,3.983a2.828,2.828,0,0,0,2.819-2.916v-.37h-1.6a.859.859,0,1,1,0-1.717h2.219c.851,0,1.215.394,1.215,1.317,0,3.477-1.665,5.315-4.815,5.315" transform="translate(-19.55 -0.047)" fill="#929288"/>
    <path id="Caminho_118" data-name="Caminho 118" d="M304.346,341.92c-3.036,0-4.112-2.42-4.112-4.493,0-2.949,2.029-4.492,4.034-4.492a4.069,4.069,0,0,1,3.876,4.291c0,.67-.341.995-1.04.995h-4.935a2.087,2.087,0,0,0,2.194,1.99,3.064,3.064,0,0,0,2.087-.753,1.283,1.283,0,0,1,.748-.366.805.805,0,0,1,.772.871c0,.915-1.93,1.959-3.624,1.959m1.862-5.255a2.029,2.029,0,0,0-1.94-2.02l-.113,0a1.978,1.978,0,0,0-1.979,2.023Z" transform="translate(-22.337 -0.606)" fill="#929288"/>
    <path id="Caminho_119" data-name="Caminho 119" d="M318.587,341.919a.926.926,0,0,1-.961-1v-4.508a1.673,1.673,0,1,0-3.34,0v4.508a.962.962,0,1,1-1.923,0v-7a.927.927,0,0,1,.961-1,.906.906,0,0,1,.938.749,3.188,3.188,0,0,1,2.1-.749,3.12,3.12,0,0,1,3.183,3.405v4.585a.926.926,0,0,1-.961,1" transform="translate(-24.762 -0.606)" fill="#929288"/>
    <path id="Caminho_120" data-name="Caminho 120" d="M324.824,341.313a.926.926,0,0,1-.961-1v-6.186h-.3a.861.861,0,1,1,0-1.711h.3V330.9a.961.961,0,1,1,1.922,0v1.523h.3a.861.861,0,1,1,0,1.711h-.3v6.186a.926.926,0,0,1-.961,1" transform="translate(-26.809 0)" fill="#929288"/>
    <path id="Caminho_121" data-name="Caminho 121" d="M332.9,341.92c-3.035,0-4.112-2.42-4.112-4.493,0-2.949,2.029-4.492,4.033-4.492a4.07,4.07,0,0,1,3.876,4.291c0,.67-.34.995-1.04.995h-4.935a2.087,2.087,0,0,0,2.193,1.99,3.064,3.064,0,0,0,2.088-.753,1.284,1.284,0,0,1,.748-.366.805.805,0,0,1,.772.871c0,.915-1.931,1.959-3.624,1.959m1.861-5.255a2.028,2.028,0,0,0-1.94-2.02l-.113,0a1.978,1.978,0,0,0-1.978,2.023Z" transform="translate(-28.045 -0.606)" fill="#929288"/>
    <path id="Caminho_122" data-name="Caminho 122" d="M339.841,345.5a.878.878,0,0,1-.9-.854,1.471,1.471,0,0,1,.2-.694l.883-1.711a1.093,1.093,0,0,1,.979-.72.879.879,0,0,1,.9.855,1.468,1.468,0,0,1-.2.694l-.883,1.711a1.091,1.091,0,0,1-.979.719" transform="translate(-30.076 -2.323)" fill="#929288"/>
    <path id="Caminho_123" data-name="Caminho 123" d="M289.461,359.43c-1.57,0-3.264-.591-3.264-1.543a.841.841,0,0,1,.82-.929,1.535,1.535,0,0,1,.73.286,3.212,3.212,0,0,0,1.729.538,1.854,1.854,0,0,0,1.959-1.917c0-.936-.792-1.252-2.084-1.692-1.358-.461-3.048-1.035-3.048-3.1a3.282,3.282,0,0,1,3.447-3c1.407,0,2.915.6,2.915,1.5a.828.828,0,0,1-.834.839,1.365,1.365,0,0,1-.758-.283,2.225,2.225,0,0,0-1.368-.406,1.308,1.308,0,0,0-1.457,1.258c0,.83.755,1.134,1.988,1.563,1.4.487,3.144,1.094,3.144,3.262a3.668,3.668,0,0,1-3.917,3.625" transform="translate(-19.531 -3.633)" fill="#929288"/>
    <path id="Caminho_124" data-name="Caminho 124" d="M303.863,360.022a.889.889,0,0,1-.91-.831,2.894,2.894,0,0,1-2.052.831c-2.6,0-3.955-2.26-3.955-4.492s1.359-4.492,3.955-4.492a3.014,3.014,0,0,1,2.059.779.887.887,0,0,1,.9-.779.9.9,0,0,1,.914.932v7.12a.9.9,0,0,1-.914.933m-2.962-7.275c-1.5,0-2.032,1.5-2.032,2.783s.532,2.783,2.032,2.783,2.032-1.5,2.032-2.783-.532-2.783-2.032-2.783" transform="translate(-21.68 -4.225)" fill="#929288"/>
    <path id="Caminho_125" data-name="Caminho 125" d="M312.609,359.228a3.323,3.323,0,0,1-3.592-3.56v-4.43a.961.961,0,1,1,1.922,0v4.384c0,1.294.53,1.9,1.67,1.9s1.67-.6,1.67-1.9v-4.384a.962.962,0,1,1,1.923,0v4.43a3.323,3.323,0,0,1-3.592,3.56m-1.15-9.529a.91.91,0,0,1-.866-.918c0-.246.125-.59.722-.821l1.807-.729a1.58,1.58,0,0,1,.638-.16.911.911,0,0,1,.867.918c0,.247-.126.59-.722.821l-1.808.73a1.605,1.605,0,0,1-.637.159" transform="translate(-24.093 -3.432)" fill="#929288"/>
    <path id="Caminho_126" data-name="Caminho 126" d="M326.632,359.113a.9.9,0,0,1-.924-.691,2.829,2.829,0,0,1-2.038.691c-1.911,0-3.844-1.543-3.844-4.492s1.934-4.492,3.844-4.492a3.062,3.062,0,0,1,2,.736v-3.379a.962.962,0,1,1,1.922,0v10.632a.926.926,0,0,1-.961,1m-2.851-7.275c-1.5,0-2.032,1.5-2.032,2.783s.532,2.783,2.032,2.783,2.032-1.5,2.032-2.783-.532-2.783-2.032-2.783" transform="translate(-26.254 -3.316)" fill="#929288"/>
    <path id="Caminho_127" data-name="Caminho 127" d="M335.713,360.021c-3.035,0-4.112-2.42-4.112-4.492,0-2.949,2.029-4.492,4.033-4.492a4.069,4.069,0,0,1,3.876,4.291c0,.669-.34.995-1.04.995h-4.935a2.087,2.087,0,0,0,2.194,1.99,3.064,3.064,0,0,0,2.087-.753,1.286,1.286,0,0,1,.748-.366.805.805,0,0,1,.772.87c0,.915-1.93,1.959-3.624,1.959m1.861-5.254a2.028,2.028,0,0,0-1.939-2.021l-.113,0a1.978,1.978,0,0,0-1.979,2.023Z" transform="translate(-28.608 -4.225)" fill="#929288"/>
    <path id="Caminho_128" data-name="Caminho 128" d="M351.62,360.021c-3.035,0-4.112-2.42-4.112-4.492,0-2.949,2.03-4.492,4.034-4.492a4.069,4.069,0,0,1,3.876,4.291c0,.669-.34.995-1.04.995h-4.935a2.087,2.087,0,0,0,2.194,1.99,3.064,3.064,0,0,0,2.087-.753,1.286,1.286,0,0,1,.748-.366.805.805,0,0,1,.772.87c0,.915-1.93,1.959-3.624,1.959m1.861-5.254a2.028,2.028,0,0,0-1.939-2.021l-.113,0a1.978,1.978,0,0,0-1.979,2.023Z" transform="translate(-31.788 -4.225)" fill="#929288"/>
    <path id="Caminho_129" data-name="Caminho 129" d="M287.3,377.625a.9.9,0,0,1-.966-.969v-9.18a.9.9,0,0,1,.966-.969h2.341a2.916,2.916,0,0,1,3.157,2.787,2.714,2.714,0,0,1-1.049,2.257,2.88,2.88,0,0,1,1.879,2.72c0,1.975-1.553,3.353-3.776,3.353Zm2.492-1.639a1.788,1.788,0,0,0,1.994-1.714,1.729,1.729,0,0,0-1.933-1.7h-1.677v3.412Zm-.362-4.992a1.4,1.4,0,0,0,1.526-1.46,1.3,1.3,0,0,0-1.481-1.386h-1.3v2.846Z" transform="translate(-19.558 -7.318)" fill="#929288"/>
    <path id="Caminho_130" data-name="Caminho 130" d="M300.955,378.158c-3.036,0-4.112-2.42-4.112-4.493,0-2.949,2.03-4.492,4.034-4.492a4.069,4.069,0,0,1,3.876,4.291c0,.669-.341.995-1.04.995h-4.935a2.087,2.087,0,0,0,2.194,1.99,3.064,3.064,0,0,0,2.087-.753,1.284,1.284,0,0,1,.748-.366.805.805,0,0,1,.772.871c0,.915-1.93,1.959-3.624,1.959m1.861-5.254a2.028,2.028,0,0,0-1.939-2.021l-.113,0a1.978,1.978,0,0,0-1.979,2.023Z" transform="translate(-21.659 -7.851)" fill="#929288"/>
    <path id="Caminho_131" data-name="Caminho 131" d="M319.464,378.158a.926.926,0,0,1-.961-1V372.53a1.525,1.525,0,1,0-3.04,0v4.632a.962.962,0,1,1-1.923,0V372.53a1.525,1.525,0,1,0-3.04,0v4.632a.962.962,0,1,1-1.923,0v-7a.927.927,0,0,1,.962-1,.9.9,0,0,1,.917.667,2.723,2.723,0,0,1,1.919-.667,2.79,2.79,0,0,1,2.315,1.2,3.079,3.079,0,0,1,2.552-1.2,3.12,3.12,0,0,1,3.183,3.405v4.585a.926.926,0,0,1-.961,1" transform="translate(-24.005 -7.851)" fill="#929288"/>
    <path id="Caminho_132" data-name="Caminho 132" d="M326.082,375.29a.855.855,0,1,1,0-1.71h3.245a.855.855,0,1,1,0,1.71Z" transform="translate(-27.331 -8.732)" fill="#929288"/>
    <path id="Caminho_133" data-name="Caminho 133" d="M337.438,378.158c-3.035,0-4.112-2.42-4.112-4.493,0-2.949,2.029-4.492,4.033-4.492a4.07,4.07,0,0,1,3.876,4.291c0,.669-.34.995-1.04.995h-4.935a2.087,2.087,0,0,0,2.193,1.99,3.065,3.065,0,0,0,2.088-.753,1.284,1.284,0,0,1,.748-.366.805.805,0,0,1,.772.871c0,.915-1.931,1.959-3.624,1.959M339.3,372.9a2.029,2.029,0,0,0-1.94-2.021l-.113,0a1.978,1.978,0,0,0-1.978,2.023Z" transform="translate(-28.953 -7.851)" fill="#929288"/>
    <path id="Caminho_134" data-name="Caminho 134" d="M347.418,378.158c-1.79,0-3.419-.875-3.419-1.835a.852.852,0,0,1,.835-.886,1.6,1.6,0,0,1,.886.387,2.833,2.833,0,0,0,1.744.623c.848,0,1.355-.435,1.355-.855,0-.561-.865-.915-1.779-1.29-1.263-.519-2.7-1.107-2.7-2.535,0-1.686,1.607-2.6,3.12-2.6,1.276,0,3.056.657,3.056,1.726a.825.825,0,0,1-.9.824,1.328,1.328,0,0,1-.8-.351,2.008,2.008,0,0,0-1.356-.488c-.552,0-1.2.2-1.2.777,0,.451.8.756,1.647,1.078,1.259.48,2.827,1.078,2.827,2.606,0,1.933-1.724,2.814-3.324,2.814" transform="translate(-31.086 -7.851)" fill="#929288"/>
    <path id="Caminho_135" data-name="Caminho 135" d="M355.669,377.552a.927.927,0,0,1-.962-1V370.37h-.3a.861.861,0,1,1,0-1.711h.3v-1.523a.962.962,0,1,1,1.923,0v1.523h.3a.861.861,0,1,1,0,1.711h-.3v6.186a.927.927,0,0,1-.961,1" transform="translate(-32.975 -7.245)" fill="#929288"/>
    <path id="Caminho_136" data-name="Caminho 136" d="M366.527,378.158a.889.889,0,0,1-.91-.831,2.894,2.894,0,0,1-2.052.831c-2.6,0-3.955-2.26-3.955-4.493s1.359-4.492,3.955-4.492a3.011,3.011,0,0,1,2.058.779.888.888,0,0,1,.9-.779.9.9,0,0,1,.914.932v7.12a.9.9,0,0,1-.914.933m-2.962-7.275c-1.5,0-2.032,1.5-2.032,2.783s.532,2.783,2.032,2.783,2.032-1.5,2.032-2.783-.532-2.783-2.032-2.783" transform="translate(-34.207 -7.851)" fill="#929288"/>
    <path id="Caminho_137" data-name="Caminho 137" d="M372.838,378.158a.927.927,0,0,1-.962-1v-7a.927.927,0,0,1,.962-1,.915.915,0,0,1,.957.886,2.325,2.325,0,0,1,1.658-.886.972.972,0,0,1,1.041.964c0,.367-.189.838-1.086,1.007a1.9,1.9,0,0,0-1.609,2.087v3.932a.926.926,0,0,1-.961,1" transform="translate(-36.66 -7.851)" fill="#929288"/>
    <rect id="Retângulo_16887" data-name="Retângulo 16887" width="151.952" height="53.563" transform="translate(188.504 329.904)" fill="none"/>
  </g>
</svg>
